<svg xmlns="http://www.w3.org/2000/svg">
    <symbol id="facebook" viewBox="0 0 256 256">
      <path d="M256,128A128,128,0,1,0,108,254.44V165H75.5V128H108V99.8C108,67.72,127.11,50,156.35,50A196.86,196.86,0,0,1,185,52.5V84H168.86C153,84,148,93.87,148,104v24h35.5l-5.68,37H148v89.44A128,128,0,0,0,256,128Z"/>
    </symbol>
    <symbol id="linkedin" viewBox="0 0 256 256">
        <rect x="4.69" y="85.26" width="53.25" height="170.5"/>
        <circle cx="31.32" cy="31.56" r="31.32"/>
        <path d="M256,255.76H202.75v-96.7s1.82-30.85-27.38-31.59-31,31.59-31,31.59v96.7H91.11V85.26h53.25V105.8S160.48,81,192.26,81c41.79,0,49,19.83,53.93,27S256,133.69,256,159.06Z"/>
    </symbol>
    <symbol id="github" viewBox="0 0 256 256">
        <path d="M128,3.16A128,128,0,0,0,87.54,252.62c6.4,1.17,8.74-2.78,8.74-6.17,0-3-.11-11.09-.18-21.77C60.5,232.41,53,207.52,53,207.52c-5.82-14.79-14.22-18.72-14.22-18.72-11.62-7.94.88-7.78.88-7.78,12.85.9,19.61,13.19,19.61,13.19,11.42,19.56,30,13.91,37.25,10.63,1.16-8.27,4.47-13.91,8.13-17.11-28.43-3.23-58.31-14.21-58.31-63.26A49.49,49.49,0,0,1,59.51,90.12c-1.32-3.24-5.71-16.25,1.25-33.87,0,0,10.75-3.44,35.2,13.12a121.28,121.28,0,0,1,64.09,0c24.44-16.56,35.17-13.12,35.17-13.12,7,17.62,2.59,30.63,1.27,33.87a49.43,49.43,0,0,1,13.16,34.35c0,49.17-29.93,60-58.44,63.16,4.59,4,8.69,11.77,8.69,23.71,0,17.11-.16,30.91-.16,35.11,0,3.42,2.3,7.4,8.8,6.15A128,128,0,0,0,128,3.16Z" fill-rule="evenodd"/>
    </symbol>
    <symbol id="twitter" viewBox="0 0 256 256">
          <path d="M128,79.62C120.73,21.34,191.9-.49,219.77,42.9c19.47-10.28,23.78-13.07,27.7-14.62-5,19.7-18.25,31.07-22.76,33.44L256,51.61C245.56,74,230.53,79.83,230.53,79.83,236.31,176.1,138,284.7,0,212.43c48.23,3.07,74.39-20.66,74.39-20.66-28.56.78-49.94-25.84-49.18-35.31,14.43,4.38,33.3,6.28,41.53.7-48.65-16-58.28-46.08-58.95-59.65,7.07,2.84,14.92,6.25,24.07,7.57C-2.81,82.24,6.56,48.87,15.58,37,50.72,82.62,128,79.62,128,79.62Z"/>
    </symbol>    
</svg>